<svg width="40" height="45" viewBox="0 0 40 45" fill="none" xmlns="http://www.w3.org/2000/svg">
<path d="M19.8658 45C15.7494 45 12.2371 44.3333 9.32886 43C6.46532 41.6667 4.22819 39.75 2.61745 37.25C1.05145 34.7083 0.201343 31.6875 0.0671146 28.1875C0.0223717 26.3958 0 24.4792 0 22.4375C0 20.3542 0.0223717 18.3958 0.0671146 16.5625C0.201343 13.1042 1.05145 10.1458 2.61745 7.6875C4.22819 5.22917 6.4877 3.33333 9.39597 2C12.349 0.666667 15.8389 0 19.8658 0C23.132 0 25.9955 0.416666 28.4564 1.25C30.9172 2.04167 32.953 3.08333 34.5638 4.375C36.2192 5.625 37.4497 6.97917 38.255 8.4375C39.1051 9.89583 39.5526 11.25 39.5973 12.5C39.6421 12.875 39.5302 14.9236 39.2617 15.1736C38.9933 15.4236 38.6353 15.5486 38.1879 15.5486H31.2752C30.8277 15.5486 30.4922 15.4653 30.2685 15.2986C30.0447 15.1319 29.8434 14.8819 29.6644 14.5486C29.3065 13.6736 28.7472 11.0833 27.9866 10.25C27.226 9.375 26.1969 8.64583 24.8993 8.0625C23.6018 7.47917 21.9239 7.1875 19.8658 7.1875C16.8233 7.1875 14.3848 7.9375 12.5503 9.4375C10.7606 10.9375 9.79866 13.4167 9.66443 16.875C9.5302 20.5 9.5302 24.1667 9.66443 27.875C9.79866 31.4167 10.783 33.9583 12.6174 35.5C14.4966 37.0417 16.9575 37.8125 20 37.8125C22.0134 37.8125 23.8031 37.4792 25.3691 36.8125C26.9799 36.1458 28.2327 35.1042 29.1275 33.6875C30.0671 32.2708 30.5369 30.4583 30.5369 28.25V26.3125L7.43475 19.3681C6.98732 19.3681 6.60701 19.2222 6.29381 18.9306C5.98061 18.6389 5.82401 18.2639 5.82401 17.8056V14.4931C5.82401 14.0347 5.98061 13.6597 6.29381 13.3681C6.60701 13.0764 6.98732 12.9306 7.43475 12.9306L38.3893 19.875C38.8814 19.875 39.2617 20.0208 39.5302 20.3125C39.8434 20.6042 40 20.9792 40 21.4375V28C40 31.5 39.1723 34.5208 37.5168 37.0625C35.906 39.6042 33.5794 41.5625 30.5369 42.9375C27.5391 44.3125 23.9821 45 19.8658 45Z" fill="#28CB8B"/>
</svg>
