<svg width="39" height="43" viewBox="0 0 39 43" fill="none" xmlns="http://www.w3.org/2000/svg">
<g clip-path="url(#clip0_310_2)">
<path d="M35.8707 28.2246C33.4829 28.2246 31.1385 27.8128 28.9168 27.0033C27.8281 26.5939 26.4898 26.9695 25.8254 27.7219L21.4403 31.3717C16.3547 28.3787 13.2221 24.9259 10.5445 19.3609L13.7575 14.6519C14.5922 13.7328 14.8916 12.3902 14.5329 11.1304C13.7955 8.66797 13.421 6.08428 13.421 3.45053C13.4211 1.54789 12.0172 0 10.2916 0H3.12945C1.4039 0 0 1.54789 0 3.45041C0 25.2584 16.0914 43 35.8707 43C37.5962 43 39.0001 41.4521 39.0001 39.5496V31.6749C39 29.7725 37.5961 28.2246 35.8707 28.2246Z" fill="#F2F2F7"/>
</g>
<defs>
<clipPath id="clip0_310_2">
<rect width="39" height="43" fill="white"/>
</clipPath>
</defs>
</svg>
