<svg width="62" height="66" viewBox="0 0 62 66" fill="none" xmlns="http://www.w3.org/2000/svg">
<path d="M33.9062 8.25H28.0938C27.8368 8.25 27.5904 8.14135 27.4087 7.94795C27.2271 7.75456 27.125 7.49225 27.125 7.21875C27.125 6.94525 27.2271 6.68294 27.4087 6.48955C27.5904 6.29615 27.8368 6.1875 28.0938 6.1875H33.9062C34.1632 6.1875 34.4096 6.29615 34.5913 6.48955C34.7729 6.68294 34.875 6.94525 34.875 7.21875C34.875 7.49225 34.7729 7.75456 34.5913 7.94795C34.4096 8.14135 34.1632 8.25 33.9062 8.25ZM41.6562 63.9375H20.3438C19.0596 63.9359 17.8284 63.3921 16.9204 62.4255C16.0124 61.4588 15.5015 60.1483 15.5 58.7812V23.7187C15.5 23.4452 15.6021 23.1829 15.7837 22.9895C15.9654 22.7961 16.2118 22.6875 16.4688 22.6875C16.7257 22.6875 16.9721 22.7961 17.1538 22.9895C17.3354 23.1829 17.4375 23.4452 17.4375 23.7187V58.7812C17.4375 60.4869 18.7414 61.875 20.3438 61.875H41.6562C43.2586 61.875 44.5625 60.4869 44.5625 58.7812V23.7187C44.5625 23.4452 44.6646 23.1829 44.8462 22.9895C45.0279 22.7961 45.2743 22.6875 45.5312 22.6875C45.7882 22.6875 46.0346 22.7961 46.2163 22.9895C46.3979 23.1829 46.5 23.4452 46.5 23.7187V58.7812C46.5 61.6234 44.3281 63.9375 41.6562 63.9375Z" fill="black"/>
<path d="M45.5313 30.9375C45.2743 30.9375 45.0279 30.8288 44.8462 30.6355C44.6646 30.4421 44.5625 30.1798 44.5625 29.9062V7.21875C44.5625 5.51306 43.2586 4.125 41.6563 4.125H20.3438C18.7414 4.125 17.4375 5.51306 17.4375 7.21875V29.9062C17.4375 30.1798 17.3354 30.4421 17.1538 30.6355C16.9721 30.8288 16.7257 30.9375 16.4688 30.9375C16.2118 30.9375 15.9654 30.8288 15.7837 30.6355C15.6021 30.4421 15.5 30.1798 15.5 29.9062V7.21875C15.5 4.37662 17.6719 2.0625 20.3438 2.0625H41.6563C44.3281 2.0625 46.5 4.37662 46.5 7.21875V29.9062C46.5 30.1798 46.3979 30.4421 46.2163 30.6355C46.0346 30.8288 45.7882 30.9375 45.5313 30.9375ZM51.3438 12.4781C50.809 12.4781 50.375 12.1192 50.375 11.55V11.3437C50.375 11.0702 50.4771 10.8079 50.6587 10.6145C50.8404 10.4211 51.0868 10.3125 51.3438 10.3125C51.6007 10.3125 51.8471 10.4211 52.0288 10.6145C52.2104 10.8079 52.3125 11.0702 52.3125 11.3437C52.3125 11.913 51.8785 12.4781 51.3438 12.4781ZM51.3438 16.6031C50.809 16.6031 50.375 16.2442 50.375 15.675V15.4687C50.375 15.1952 50.4771 14.9329 50.6587 14.7395C50.8404 14.5461 51.0868 14.4375 51.3438 14.4375C51.6007 14.4375 51.8471 14.5461 52.0288 14.7395C52.2104 14.9329 52.3125 15.1952 52.3125 15.4687C52.3125 16.038 51.8785 16.6031 51.3438 16.6031ZM51.3438 20.7281C50.809 20.7281 50.375 20.3692 50.375 19.8V19.5937C50.375 19.3202 50.4771 19.0579 50.6587 18.8645C50.8404 18.6711 51.0868 18.5625 51.3438 18.5625C51.6007 18.5625 51.8471 18.6711 52.0288 18.8645C52.2104 19.0579 52.3125 19.3202 52.3125 19.5937C52.3125 20.163 51.8785 20.7281 51.3438 20.7281ZM10.6563 47.3344C10.1215 47.3344 9.6875 46.9755 9.6875 46.4062V46.2C9.6875 45.9265 9.78956 45.6642 9.97124 45.4708C10.1529 45.2774 10.3993 45.1687 10.6563 45.1687C10.9132 45.1687 11.1596 45.2774 11.3413 45.4708C11.5229 45.6642 11.625 45.9265 11.625 46.2C11.625 46.7692 11.191 47.3344 10.6563 47.3344ZM10.6563 51.4594C10.1215 51.4594 9.6875 51.1005 9.6875 50.5312V50.325C9.6875 50.0515 9.78956 49.7892 9.97124 49.5958C10.1529 49.4024 10.3993 49.2937 10.6563 49.2937C10.9132 49.2937 11.1596 49.4024 11.3413 49.5958C11.5229 49.7892 11.625 50.0515 11.625 50.325C11.625 50.8942 11.191 51.4594 10.6563 51.4594ZM10.6563 55.5844C10.1215 55.5844 9.6875 55.2255 9.6875 54.6562V54.45C9.6875 54.1765 9.78956 53.9142 9.97124 53.7208C10.1529 53.5274 10.3993 53.4187 10.6563 53.4187C10.9132 53.4187 11.1596 53.5274 11.3413 53.7208C11.5229 53.9142 11.625 54.1765 11.625 54.45C11.625 55.0192 11.191 55.5844 10.6563 55.5844Z" fill="black"/>
<path d="M48.1294 55.6875C47.9849 55.6875 47.8422 55.6532 47.7118 55.5869C47.5814 55.5206 47.4666 55.4241 47.3757 55.3045C47.2849 55.1849 47.2203 55.0451 47.1868 54.8955C47.1533 54.7458 47.1517 54.5901 47.182 54.4397L47.8214 51.2841C47.8595 51.0945 47.9473 50.9204 48.0744 50.7817C48.2016 50.643 48.3631 50.5454 48.5402 50.5003C49.4751 50.2563 50.3686 49.859 51.1888 49.3226C51.3434 49.2221 51.5214 49.1698 51.7026 49.1717C51.8838 49.1735 52.0608 49.2294 52.2137 49.3329L54.1318 50.6385L55.3195 49.3639L54.0931 47.3385C53.9946 47.1756 53.9412 46.9866 53.9388 46.793C53.9364 46.5993 53.9851 46.4089 54.0795 46.2433C54.5836 45.3706 54.9562 44.4193 55.1839 43.4239C55.2265 43.236 55.3177 43.0645 55.4471 42.9289C55.5765 42.7933 55.7391 42.699 55.9163 42.6566L58.125 42.1348V40.3672L55.9182 39.8454C55.741 39.8031 55.5785 39.7088 55.4491 39.5732C55.3196 39.4376 55.2284 39.2661 55.1858 39.0782C54.9573 38.0831 54.5847 37.1319 54.0814 36.2587C53.9863 36.0939 53.9369 35.9038 53.9389 35.7104C53.941 35.517 53.9944 35.3281 54.0931 35.1656L55.3214 33.1217L54.1357 31.8594L52.2156 33.1671C52.0629 33.2711 51.8858 33.3273 51.7045 33.3291C51.5233 33.3309 51.3452 33.2783 51.1907 33.1774C50.3702 32.6417 49.4768 32.2445 48.5421 31.9997C48.3651 31.9546 48.2036 31.857 48.0764 31.7183C47.9492 31.5796 47.8615 31.4055 47.8233 31.2159L47.3467 28.875H46.5C46.2431 28.875 45.9967 28.7664 45.815 28.573C45.6333 28.3796 45.5312 28.1173 45.5312 27.8437C45.5312 27.5702 45.6333 27.3079 45.815 27.1145C45.9967 26.9211 46.2431 26.8125 46.5 26.8125H48.1275C48.3488 26.8129 48.5633 26.894 48.7353 27.0422C48.9074 27.1904 49.0265 27.3969 49.073 27.6272L49.5903 30.1703C50.2994 30.3992 50.995 30.7086 51.6654 31.0942L53.7463 29.6773C53.9323 29.5507 54.1535 29.4956 54.373 29.5211C54.5925 29.5467 54.7973 29.6512 54.9533 29.8176L57.2415 32.2513C57.3974 32.4177 57.4953 32.6358 57.5189 32.8694C57.5425 33.1031 57.4905 33.3384 57.3713 33.5362L56.0402 35.7514C56.4026 36.4671 56.6932 37.2075 56.9082 37.9644L59.3011 38.5296C59.7467 38.6347 60.0625 39.0555 60.0625 39.5381V42.9619C60.0624 43.1966 59.9871 43.4243 59.849 43.6073C59.7109 43.7903 59.5183 43.9177 59.303 43.9684L56.9102 44.5335C56.6915 45.2997 56.4007 46.0405 56.0422 46.7445L57.3713 48.939C57.4917 49.1362 57.5448 49.3713 57.5219 49.6052C57.499 49.839 57.4014 50.0575 57.2454 50.2239L54.9572 52.6783C54.8011 52.8451 54.5961 52.9502 54.3762 52.9761C54.1564 53.0019 53.9348 52.9471 53.7482 52.8206L51.6673 51.4037C51.0063 51.7846 50.3112 52.0941 49.5923 52.3277L49.0749 54.8707C49.0285 55.1013 48.9094 55.308 48.7374 55.4566C48.5655 55.6051 48.3509 55.6866 48.1294 55.6875Z" fill="black"/>
<path d="M49.195 46.5671C48.9875 46.5668 48.7857 46.4955 48.6191 46.3638C48.4526 46.2321 48.3301 46.047 48.2698 45.8357C48.2095 45.6244 48.2145 45.398 48.2841 45.19C48.3537 44.9819 48.4842 44.8031 48.6564 44.68C49.4 44.1465 49.947 43.3553 50.2043 42.4409C50.4617 41.5265 50.4135 40.5455 50.0679 39.6646C49.7224 38.7838 49.1008 38.0576 48.309 37.6097C47.5172 37.1617 46.6041 37.0196 45.7249 37.2075C45.6003 37.2347 45.4718 37.2356 45.3468 37.2099C45.2218 37.1843 45.1028 37.1327 44.9966 37.0581C44.8904 36.9835 44.799 36.8873 44.7276 36.7751C44.6563 36.663 44.6064 36.5369 44.5808 36.4042C44.5553 36.2715 44.5545 36.1347 44.5786 36.0017C44.6027 35.8686 44.6511 35.7419 44.7212 35.6288C44.7913 35.5158 44.8816 35.4185 44.987 35.3425C45.0924 35.2666 45.2108 35.2135 45.3355 35.1863C46.1801 35.004 47.0521 35.0236 47.8887 35.2437C48.7253 35.4638 49.5056 35.8789 50.1731 36.4591C50.8406 37.0393 51.3788 37.77 51.7488 38.5985C52.1187 39.427 52.3113 40.3327 52.3124 41.25C52.3126 42.2667 52.0774 43.2677 51.6276 44.1646C51.1778 45.0614 50.5273 45.8264 49.7336 46.3918C49.5744 46.5059 49.3869 46.5669 49.195 46.5671ZM15.4999 30.9375C14.2511 30.9393 13.0349 30.5127 12.0317 29.721C11.0285 28.9292 10.2916 27.8145 9.93021 26.5419C9.56885 25.2694 9.60224 23.9067 10.0255 22.656C10.4487 21.4052 11.2392 20.3329 12.2798 19.5979C12.4936 19.4558 12.7509 19.408 12.9973 19.4646C13.2436 19.5212 13.4595 19.6778 13.5992 19.9011C13.7389 20.1244 13.7913 20.3968 13.7454 20.6606C13.6994 20.9244 13.5588 21.1587 13.3532 21.3139C12.6096 21.8453 12.0617 22.6342 11.8024 23.5467C11.5431 24.4593 11.5884 25.4392 11.9307 26.3202C12.2729 27.2012 12.8911 27.929 13.6801 28.38C14.4691 28.8311 15.3805 28.9775 16.2594 28.7946C16.5114 28.7417 16.7728 28.797 16.9866 28.9484C17.2004 29.0999 17.3492 29.3352 17.4006 29.6031C17.4257 29.7358 17.426 29.8725 17.4014 30.0054C17.3768 30.1382 17.3278 30.2646 17.2573 30.3772C17.1867 30.4899 17.096 30.5866 16.9903 30.6619C16.8845 30.7372 16.7659 30.7895 16.6411 30.8158C16.2656 30.8972 15.8832 30.938 15.4999 30.9375Z" fill="black"/>
<path d="M15.5 39.1873H13.8725C13.6512 39.1869 13.4367 39.1058 13.2647 38.9576C13.0926 38.8094 12.9735 38.6029 12.927 38.3726L12.4097 35.8295C11.6906 35.5963 10.9955 35.2868 10.3346 34.9055L8.25375 36.3225C8.06767 36.449 7.84654 36.5041 7.62702 36.4786C7.40749 36.4531 7.20274 36.3485 7.04669 36.1822L4.7585 33.7485C4.60255 33.5821 4.50467 33.364 4.48106 33.1303C4.45745 32.8966 4.50954 32.6614 4.62869 32.4635L5.95975 30.2484C5.60156 29.5435 5.31076 28.8021 5.09175 28.0353L2.69894 27.4702C2.48312 27.4195 2.29002 27.2919 2.15157 27.1085C2.01312 26.9251 1.9376 26.6969 1.9375 26.4616V23.0379C1.93759 22.8032 2.0129 22.5755 2.15099 22.3925C2.28909 22.2095 2.4817 22.0821 2.697 22.0314L5.08981 21.4663C5.30487 20.7093 5.5955 19.9689 5.95781 19.2553L4.63063 17.0587C4.51028 16.8615 4.45714 16.6264 4.48006 16.3925C4.50298 16.1587 4.60058 15.9402 4.75656 15.7738L7.04475 13.3194C7.20031 13.1516 7.40538 13.0458 7.62553 13.0199C7.84568 12.994 8.0675 13.0495 8.25375 13.1771L10.3346 14.594C10.9956 14.2131 11.6908 13.9036 12.4097 13.67L12.927 11.127C12.9505 10.9911 12.9993 10.8617 13.0707 10.7464C13.142 10.631 13.2344 10.5321 13.3423 10.4555C13.4503 10.3789 13.5715 10.3261 13.699 10.3003C13.8265 10.2746 13.9575 10.2763 14.0843 10.3055C14.2111 10.3346 14.3311 10.3906 14.4372 10.4701C14.5433 10.5495 14.6333 10.6509 14.7019 10.7681C14.7706 10.8853 14.8164 11.016 14.8366 11.1524C14.8569 11.2888 14.8512 11.4281 14.8199 11.5621L14.1806 14.7178C14.1424 14.9073 14.0547 15.0815 13.9275 15.2202C13.8003 15.3588 13.6388 15.4564 13.4617 15.5015C12.5264 15.7459 11.6323 16.1432 10.8112 16.6792C10.6566 16.7797 10.4786 16.832 10.2974 16.8302C10.1162 16.8283 9.93915 16.7725 9.78631 16.6689L7.86819 15.3633L6.67856 16.638L7.905 18.6633C8.00432 18.8258 8.05831 19.015 8.06071 19.2088C8.06311 19.4027 8.01382 19.5933 7.91856 19.7585C7.4145 20.6312 7.04187 21.5826 6.81419 22.578C6.77157 22.7659 6.68038 22.9373 6.55095 23.0729C6.42151 23.2085 6.259 23.3028 6.08181 23.3452L3.875 23.865V25.6325L6.08181 26.1543C6.259 26.1967 6.42151 26.291 6.55095 26.4266C6.68038 26.5622 6.77157 26.7337 6.81419 26.9216C7.03312 27.8951 7.40706 28.8438 7.91856 29.741C8.11231 30.0772 8.10844 30.5021 7.90694 30.8341L6.67856 32.876L7.86431 34.1383L9.78437 32.8306C9.93738 32.7275 10.1144 32.6719 10.2955 32.6701C10.4765 32.6683 10.6545 32.7203 10.8093 32.8203C11.6541 33.3669 12.5453 33.7629 13.4579 33.998C13.6349 34.0431 13.7964 34.1407 13.9236 34.2794C14.0508 34.4181 14.1385 34.5922 14.1767 34.7818L14.6533 37.1248H15.5C15.7569 37.1248 16.0033 37.2334 16.185 37.4268C16.3667 37.6202 16.4687 37.8825 16.4687 38.156C16.4687 38.4295 16.3667 38.6918 16.185 38.8852C16.0033 39.0786 15.7569 39.1873 15.5 39.1873ZM30.0312 38.156C29.884 38.1564 29.7386 38.1209 29.6061 38.0523C29.4737 37.9838 29.3577 37.8839 29.2671 37.7603C29.1764 37.6368 29.1135 37.4928 29.0831 37.3394C29.0526 37.186 29.0556 37.0272 29.0916 36.8752L31.0291 28.6252C31.0589 28.4933 31.1132 28.369 31.1886 28.2597C31.2641 28.1503 31.3592 28.058 31.4684 27.9881C31.5777 27.9182 31.6989 27.8722 31.8251 27.8527C31.9512 27.8332 32.0798 27.8406 32.2032 27.8745C32.3267 27.907 32.443 27.9652 32.5453 28.0457C32.6476 28.1262 32.7341 28.2274 32.7996 28.3435C32.8651 28.4596 32.9084 28.5884 32.9271 28.7224C32.9458 28.8564 32.9395 28.993 32.9084 29.1243L30.9709 37.3743C30.9193 37.5979 30.7985 37.7965 30.6281 37.9382C30.4577 38.08 30.2475 38.1567 30.0312 38.156ZM35.8437 38.156C35.6523 38.156 35.4651 38.0955 35.3059 37.9824C35.1467 37.8692 35.0226 37.7083 34.9492 37.5201C34.8758 37.3318 34.8565 37.1246 34.8936 36.9247C34.9307 36.7248 35.0227 36.541 35.1579 36.3967L38.3489 32.9998L35.1598 29.6049C34.9833 29.4104 34.8857 29.1499 34.8879 28.8795C34.8901 28.6091 34.992 28.3505 35.1716 28.1593C35.3512 27.9681 35.5942 27.8596 35.8482 27.8573C36.1022 27.8549 36.3469 27.9589 36.5296 28.1467L40.4046 32.2717C40.5862 32.4651 40.6883 32.7273 40.6883 33.0008C40.6883 33.2742 40.5862 33.5365 40.4046 33.7299L36.5296 37.8549C36.3474 38.0478 36.1008 38.1561 35.8437 38.156ZM26.1562 38.156C25.8992 38.1561 25.6526 38.0478 25.4704 37.8549L21.5954 33.7299C21.4138 33.5365 21.3117 33.2742 21.3117 33.0008C21.3117 32.7273 21.4138 32.4651 21.5954 32.2717L25.4704 28.1467C25.6531 27.9589 25.8978 27.8549 26.1518 27.8573C26.4058 27.8596 26.6488 27.9681 26.8284 28.1593C27.008 28.3505 27.1099 28.6091 27.1121 28.8795C27.1143 29.1499 27.0167 29.4104 26.8402 29.6049L23.6511 32.9998L26.8402 36.3946C26.9759 36.5387 27.0684 36.7225 27.106 36.9226C27.1436 37.1227 27.1245 37.3301 27.0513 37.5187C26.9781 37.7073 26.854 37.8685 26.6946 37.9819C26.5353 38.0954 26.3479 38.156 26.1562 38.156Z" fill="black"/>
</svg>
