<svg width="50" height="52" viewBox="0 0 50 52" fill="none" xmlns="http://www.w3.org/2000/svg">
<path d="M35.8333 0H14.1667C13.062 0.00137614 12.003 0.458364 11.2219 1.27072C10.4407 2.08308 10.0013 3.18448 10 4.33333V47.6667C10.0013 48.8155 10.4407 49.9169 11.2219 50.7293C12.003 51.5416 13.062 51.9986 14.1667 52H35.8333C36.938 51.9986 37.997 51.5416 38.7782 50.7293C39.5593 49.9169 39.9987 48.8155 40 47.6667V4.33333C39.9987 3.18448 39.5593 2.08308 38.7782 1.27072C37.997 0.458364 36.938 0.00137614 35.8333 0ZM20 1.73333H30V2.6C30 2.82985 29.9122 3.05029 29.7559 3.21283C29.5996 3.37536 29.3877 3.46667 29.1667 3.46667H20.8333C20.6123 3.46667 20.4004 3.37536 20.2441 3.21283C20.0878 3.05029 20 2.82985 20 2.6V1.73333ZM38.3333 47.6667C38.3333 48.3562 38.0699 49.0175 37.6011 49.5051C37.1323 49.9927 36.4964 50.2667 35.8333 50.2667H14.1667C13.5036 50.2667 12.8677 49.9927 12.3989 49.5051C11.9301 49.0175 11.6667 48.3562 11.6667 47.6667V4.33333C11.6667 3.64377 11.9301 2.98245 12.3989 2.49486C12.8677 2.00726 13.5036 1.73333 14.1667 1.73333H18.3333V2.6C18.3333 3.28956 18.5967 3.95088 19.0656 4.43848C19.5344 4.92607 20.1703 5.2 20.8333 5.2H29.1667C29.8297 5.2 30.4656 4.92607 30.9344 4.43848C31.4033 3.95088 31.6667 3.28956 31.6667 2.6V1.73333H35.8333C36.4964 1.73333 37.1323 2.00726 37.6011 2.49486C38.0699 2.98245 38.3333 3.64377 38.3333 4.33333V47.6667Z" fill="black"/>
<path d="M30.8332 46.7998H19.1665C18.9455 46.7998 18.7335 46.8912 18.5772 47.0537C18.421 47.2162 18.3332 47.4367 18.3332 47.6665C18.3332 47.8964 18.421 48.1168 18.5772 48.2793C18.7335 48.4419 18.9455 48.5332 19.1665 48.5332H30.8332C31.0542 48.5332 31.2661 48.4419 31.4224 48.2793C31.5787 48.1168 31.6665 47.8964 31.6665 47.6665C31.6665 47.4367 31.5787 47.2162 31.4224 47.0537C31.2661 46.8912 31.0542 46.7998 30.8332 46.7998ZM31.6665 33.7998C31.8875 33.7998 32.0995 33.7085 32.2558 33.546C32.412 33.3835 32.4998 33.163 32.4998 32.9332C32.4998 32.7033 32.412 32.4829 32.2558 32.3203C32.0995 32.1578 31.8875 32.0665 31.6665 32.0665H26.6665C26.4455 32.0665 26.2335 32.1578 26.0772 32.3203C25.921 32.4829 25.8332 32.7033 25.8332 32.9332C25.8332 33.163 25.921 33.3835 26.0772 33.546C26.2335 33.7085 26.4455 33.7998 26.6665 33.7998H28.3332V40.7332H26.6665C26.4455 40.7332 26.2335 40.8245 26.0772 40.987C25.921 41.1495 25.8332 41.37 25.8332 41.5998C25.8332 41.8297 25.921 42.0501 26.0772 42.2127C26.2335 42.3752 26.4455 42.4665 26.6665 42.4665H31.6665C31.8875 42.4665 32.0995 42.3752 32.2558 42.2127C32.412 42.0501 32.4998 41.8297 32.4998 41.5998C32.4998 41.37 32.412 41.1495 32.2558 40.987C32.0995 40.8245 31.8875 40.7332 31.6665 40.7332H29.9998V33.7998H31.6665ZM18.3332 32.0665C18.1122 32.0665 17.9002 32.1578 17.7439 32.3203C17.5876 32.4829 17.4998 32.7033 17.4998 32.9332V38.9998C17.4998 39.9193 17.851 40.801 18.4761 41.4511C19.1013 42.1013 19.9491 42.4665 20.8332 42.4665C21.7172 42.4665 22.5651 42.1013 23.1902 41.4511C23.8153 40.801 24.1665 39.9193 24.1665 38.9998V32.9332C24.1665 32.7033 24.0787 32.4829 23.9224 32.3203C23.7661 32.1578 23.5542 32.0665 23.3332 32.0665C23.1122 32.0665 22.9002 32.1578 22.7439 32.3203C22.5876 32.4829 22.4998 32.7033 22.4998 32.9332V38.9998C22.4998 39.4596 22.3242 39.9004 22.0117 40.2255C21.6991 40.5506 21.2752 40.7332 20.8332 40.7332C20.3911 40.7332 19.9672 40.5506 19.6547 40.2255C19.3421 39.9004 19.1665 39.4596 19.1665 38.9998V32.9332C19.1665 32.7033 19.0787 32.4829 18.9224 32.3203C18.7661 32.1578 18.5542 32.0665 18.3332 32.0665ZM20.8332 19.0665C21.7172 19.0665 22.5651 18.7013 23.1902 18.0511C23.8153 17.401 24.1665 16.5193 24.1665 15.5998V9.53317C24.1665 9.30332 24.0787 9.08288 23.9224 8.92034C23.7661 8.75781 23.5542 8.6665 23.3332 8.6665C23.1122 8.6665 22.9002 8.75781 22.7439 8.92034C22.5876 9.08288 22.4998 9.30332 22.4998 9.53317V15.5998C22.4998 16.0595 22.3242 16.5004 22.0117 16.8255C21.6991 17.1506 21.2752 17.3332 20.8332 17.3332C20.3911 17.3332 19.9672 17.1506 19.6547 16.8255C19.3421 16.5004 19.1665 16.0595 19.1665 15.5998V9.53317C19.1665 9.30332 19.0787 9.08288 18.9224 8.92034C18.7661 8.75781 18.5542 8.6665 18.3332 8.6665C18.1122 8.6665 17.9002 8.75781 17.7439 8.92034C17.5876 9.08288 17.4998 9.30332 17.4998 9.53317V15.5998C17.4998 16.5193 17.851 17.401 18.4761 18.0511C19.1013 18.7013 19.9491 19.0665 20.8332 19.0665ZM26.2373 18.9426C26.4268 19.0609 26.6536 19.0962 26.868 19.0406C27.0824 18.985 27.2668 18.8431 27.3807 18.6462L29.1665 15.5513L30.9523 18.6462C31.0682 18.8387 31.2521 18.9763 31.4645 19.0292C31.6769 19.0822 31.9008 19.0463 32.088 18.9293C32.2752 18.8123 32.4108 18.6235 32.4655 18.4036C32.5202 18.1837 32.4898 17.9503 32.3807 17.7535L30.1382 13.8665L32.3807 9.9795C32.4898 9.78273 32.5202 9.54927 32.4655 9.32938C32.4108 9.10948 32.2752 8.92073 32.088 8.80373C31.9008 8.68673 31.6769 8.65084 31.4645 8.70379C31.2521 8.75674 31.0682 8.89429 30.9523 9.08684L29.1665 12.1817L27.3807 9.08684C27.2648 8.89429 27.0809 8.75674 26.8685 8.70379C26.6561 8.65084 26.4322 8.68673 26.245 8.80373C26.0578 8.92073 25.9223 9.10948 25.8675 9.32938C25.8128 9.54927 25.8432 9.78273 25.9523 9.9795L28.1948 13.8665L25.9523 17.7535C25.8386 17.9505 25.8047 18.1864 25.8581 18.4094C25.9115 18.6324 26.048 18.8242 26.2373 18.9426ZM34.7665 21.7012L14.7665 27.7678C14.6614 27.7997 14.5635 27.8528 14.4781 27.924C14.3928 27.9953 14.3218 28.0833 14.2692 28.1831C14.2165 28.2829 14.1833 28.3925 14.1714 28.5056C14.1595 28.6188 14.1692 28.7332 14.1998 28.8425C14.2305 28.9518 14.2815 29.0537 14.35 29.1424C14.4185 29.2312 14.5032 29.305 14.5991 29.3597C14.6951 29.4145 14.8005 29.449 14.9093 29.4614C15.018 29.4737 15.1281 29.4637 15.2332 29.4318L35.2332 23.3652C35.4453 23.3008 35.6242 23.1514 35.7305 22.9499C35.8368 22.7484 35.8617 22.5112 35.7998 22.2905C35.738 22.0698 35.5943 21.8838 35.4005 21.7733C35.2067 21.6627 34.9787 21.6368 34.7665 21.7012Z" fill="black"/>
</svg>
