<svg width="61" height="55" viewBox="0 0 61 55" fill="none" xmlns="http://www.w3.org/2000/svg">
<path d="M57.7288 37.5366L54.7102 34.8167L54.675 34.8494C53.9611 34.2409 52.722 34.2495 52.0215 34.8812C51.6688 35.1991 51.4687 35.6374 51.4687 36.0929C51.4685 36.3766 51.5463 36.656 51.6952 36.906C51.844 37.156 52.0593 37.3688 52.3217 37.5255L55.0333 39.9678C58.0061 42.6482 58.0061 47.0104 55.0333 49.6908C53.5932 50.9893 51.6774 51.7043 49.6415 51.7043C47.6056 51.7043 45.6898 50.9893 44.2497 49.6908L34.7184 41.097C32.2117 38.8369 31.8276 35.3848 33.548 32.7491L36.6981 35.5893C37.0707 35.9253 37.5578 36.0929 38.0458 36.0929C38.5338 36.0929 39.0208 35.9253 39.3935 35.5893C39.7509 35.267 39.9516 34.8299 39.9516 34.3741C39.9516 33.9184 39.7509 33.4813 39.3935 33.159L36.2425 30.3179C37.3771 29.7142 38.6663 29.387 39.9835 29.3683C40.4889 29.3604 40.9702 29.172 41.3217 28.8444C41.6732 28.5168 41.8662 28.0769 41.8583 27.6212C41.8392 26.6716 40.9252 25.911 39.9206 25.9308C37.5807 25.9652 35.358 26.6372 33.4899 27.8369L30.2035 24.8729C33.3774 20.8484 32.9771 15.2204 28.9778 11.6127L19.4465 3.01984C17.2858 1.07164 14.414 0 11.3592 0C8.30448 0 5.4308 1.07164 3.27102 3.01984C-1.18865 7.04086 -1.18865 13.5833 3.27102 17.6043L12.8023 26.198C13.8619 27.1586 15.1222 27.92 16.5104 28.4384C17.8986 28.9568 19.387 29.2217 20.8895 29.2179C23.299 29.2179 25.5884 28.5424 27.5099 27.3049L30.7963 30.268C27.6224 34.2925 28.0227 39.9205 32.022 43.5273L41.5533 52.1211C43.714 54.0693 46.5848 55.1418 49.6406 55.1418C52.6963 55.1418 55.568 54.0693 57.7278 52.1211C62.1884 48.1009 62.1884 41.5577 57.7288 37.5366ZM20.8895 25.7804C19.8878 25.7829 18.8955 25.6062 17.9699 25.2606C17.0444 24.9149 16.2041 24.4073 15.4977 23.7669L5.96646 15.1731C2.99366 12.4927 2.99366 8.13055 5.96646 5.45016C7.40663 4.15164 9.32241 3.4375 11.3583 3.4375C13.3942 3.4375 15.3099 4.15164 16.7492 5.45016L26.2814 14.0439C28.7881 16.3041 29.1722 19.7562 27.4518 22.3919L24.1435 19.409C23.9677 19.2448 23.7573 19.1139 23.5247 19.0238C23.2922 18.9337 23.042 18.8863 22.7889 18.8843C22.5358 18.8824 22.2848 18.9258 22.0505 19.0123C21.8163 19.0987 21.6034 19.2263 21.4244 19.3877C21.2455 19.5491 21.1039 19.741 21.0081 19.9522C20.9122 20.1634 20.864 20.3897 20.8662 20.618C20.8684 20.8462 20.921 21.0717 21.0209 21.2814C21.1208 21.4911 21.266 21.6807 21.4481 21.8393L24.7583 24.8239C23.5874 25.4503 22.251 25.7807 20.8895 25.7804Z" fill="black"/>
</svg>
